<?xml version="1.0" encoding="UTF-8"?>
<svg id="Livello_2" data-name="Livello 2" xmlns="http://www.w3.org/2000/svg" viewBox="0 0 514.44 130.86">
  <g id="Livello_1-2" data-name="Livello 1">
    <g>
      <path fill="#1C2B4A" d="M41.47,130.86l-.05-22.67c25.59,2.15,49.68-11.05,61.74-33.51,5.54-10.44,7.92-21.84,7.15-33.82h21.62s0,90,0,90H41.47Z"/>
      <path fill="#1C2B4A" d="M30.94,30.9v64.69c-4.06-1.08-7.38-3.06-10.64-5.52C1.42,76.07-5.17,51.09,4.27,29.7,13.56,8.62,36.28-3.52,59.46.9c16.35,3.18,30.12,14.15,36.71,29.98H30.94Z"/>
      <path fill="#1C2B4A" d="M88.47,78.14c-11.49,14.16-28.92,21.35-47.03,19.64v-56.92s58.46,0,58.46,0c1.07,13.55-2.8,26.55-11.44,37.28Z"/>
    </g>
    <g>
      <path fill="#1C2B4A" d="M166.2,128.28c-.52.51-1.27.97-2.27,1.38-.99.41-2.25.62-3.76.62-2.15,0-3.9-.72-5.25-2.16-1.35-1.44-2.02-3.31-2.02-5.62v-.55c0-2.39.67-4.33,2-5.82s3.07-2.24,5.21-2.24c1.25,0,2.39.2,3.42.6,1.03.4,1.89.94,2.58,1.61v3.21h-2.36l-.45-2.13c-.29-.25-.68-.45-1.15-.6-.48-.15-1.03-.22-1.65-.22-1.39,0-2.48.51-3.25,1.54-.77,1.03-1.16,2.37-1.16,4.04v.57c0,1.62.38,2.91,1.14,3.88.76.97,1.85,1.45,3.28,1.45.64,0,1.16-.05,1.56-.16s.71-.24.94-.38v-2.7l-2.28-.17v-2.24h5.48v6.12Z"/>
      <path fill="#1C2B4A" d="M173.54,130.28c-1.71,0-3.07-.55-4.09-1.64-1.02-1.09-1.53-2.48-1.53-4.17v-.44c0-1.76.48-3.21,1.45-4.34.97-1.14,2.26-1.7,3.89-1.7,1.6,0,2.84.48,3.72,1.44.88.96,1.32,2.26,1.32,3.91v1.74h-7.07l-.02.07c.06.78.32,1.42.78,1.93.46.5,1.09.75,1.89.75.71,0,1.29-.07,1.76-.21.47-.14.98-.37,1.53-.67l.86,1.97c-.49.39-1.12.71-1.9.97s-1.64.39-2.6.39ZM173.26,120.45c-.59,0-1.06.23-1.4.68s-.55,1.05-.63,1.78l.03.05h3.92v-.28c0-.68-.16-1.22-.48-1.62-.32-.41-.8-.61-1.44-.61Z"/>
      <path fill="#1C2B4A" d="M179.64,128.13l1.53-.33v-7.34l-1.7-.33v-1.93h4.67l.14,1.7c.39-.61.88-1.08,1.46-1.41.58-.33,1.22-.5,1.94-.5,1.2,0,2.13.38,2.8,1.13.67.75,1.01,1.93,1.01,3.53v5.15l1.53.33v1.92h-6.11v-1.92l1.37-.33v-5.14c0-.79-.16-1.36-.48-1.69-.32-.33-.81-.5-1.46-.5-.42,0-.8.09-1.14.26-.34.17-.62.41-.84.73v6.35l1.29.33v1.92h-6.02v-1.92Z"/>
      <path fill="#1C2B4A" d="M193.93,124.02c0-1.77.49-3.21,1.48-4.34.99-1.13,2.35-1.69,4.1-1.69s3.12.56,4.11,1.68c.99,1.12,1.48,2.57,1.48,4.34v.23c0,1.78-.49,3.23-1.48,4.35-.99,1.12-2.35,1.68-4.09,1.68s-3.13-.56-4.12-1.68c-.99-1.12-1.48-2.57-1.48-4.35v-.23ZM197.12,124.25c0,1.08.19,1.95.57,2.6.38.65.99.98,1.84.98s1.43-.33,1.81-.98.57-1.52.57-2.59v-.23c0-1.05-.19-1.91-.58-2.57-.39-.66-1-1-1.83-1s-1.44.33-1.82,1c-.38.66-.57,1.52-.57,2.57v.23Z"/>
      <path fill="#1C2B4A" d="M214.03,130.05c-.09-.2-.16-.4-.23-.61-.07-.21-.12-.42-.15-.63-.38.44-.84.79-1.38,1.06-.54.27-1.17.4-1.87.4-1.16,0-2.08-.32-2.76-.95s-1.02-1.49-1.02-2.58.45-1.97,1.33-2.57c.89-.61,2.2-.91,3.92-.91h1.63v-1.16c0-.57-.16-1.01-.49-1.32-.33-.31-.81-.47-1.46-.47-.37,0-.69.04-.97.13-.28.08-.51.18-.69.3l-.21,1.27h-2.41v-2.63c.59-.39,1.26-.73,2.02-1,.75-.27,1.58-.4,2.47-.4,1.47,0,2.66.36,3.57,1.08.92.72,1.37,1.74,1.37,3.07v4.89c0,.18,0,.35,0,.51,0,.16.02.31.04.46l.97.13v1.92h-3.69ZM211.26,127.92c.48,0,.92-.1,1.31-.31s.7-.47.92-.78v-1.8h-1.63c-.68,0-1.19.16-1.54.48-.35.32-.53.7-.53,1.14,0,.4.13.71.39.94.26.23.62.34,1.08.34Z"/>
      <path fill="#1C2B4A" d="M237.27,119.49h-2.37l-.33-2.12c-.31-.31-.71-.56-1.19-.74-.48-.18-1.04-.27-1.69-.27-1.39,0-2.45.5-3.2,1.51-.75,1.01-1.12,2.32-1.12,3.94v.56c0,1.62.37,2.94,1.12,3.95s1.79,1.52,3.15,1.52c.63,0,1.2-.09,1.72-.27.52-.18.92-.43,1.21-.74l.33-2.12h2.37v3.15c-.64.74-1.46,1.34-2.46,1.78-1,.44-2.11.66-3.34.66-2.14,0-3.89-.74-5.25-2.22-1.36-1.48-2.05-3.38-2.05-5.7v-.54c0-2.31.68-4.21,2.04-5.7s3.11-2.23,5.26-2.23c1.23,0,2.35.22,3.34.67.99.45,1.81,1.04,2.46,1.78v3.15Z"/>
      <path fill="#1C2B4A" d="M244.48,130.28c-1.71,0-3.07-.55-4.09-1.64-1.02-1.09-1.53-2.48-1.53-4.17v-.44c0-1.76.48-3.21,1.45-4.34.97-1.14,2.26-1.7,3.89-1.7,1.6,0,2.84.48,3.72,1.44.88.96,1.32,2.26,1.32,3.91v1.74h-7.07l-.02.07c.06.78.32,1.42.78,1.93.46.5,1.09.75,1.89.75.71,0,1.29-.07,1.76-.21.47-.14.98-.37,1.53-.67l.86,1.97c-.49.39-1.12.71-1.9.97s-1.64.39-2.6.39ZM244.2,120.45c-.59,0-1.06.23-1.4.68s-.55,1.05-.63,1.78l.03.05h3.92v-.28c0-.68-.16-1.22-.48-1.62-.32-.41-.8-.61-1.44-.61Z"/>
      <path fill="#1C2B4A" d="M250.58,128.13l1.53-.33v-7.34l-1.7-.33v-1.93h4.67l.14,1.7c.39-.61.88-1.08,1.46-1.41.58-.33,1.22-.5,1.94-.5,1.2,0,2.13.38,2.8,1.13.67.75,1.01,1.93,1.01,3.53v5.15l1.53.33v1.92h-6.11v-1.92l1.37-.33v-5.14c0-.79-.16-1.36-.48-1.69-.32-.33-.81-.5-1.46-.5-.42,0-.8.09-1.14.26-.34.17-.62.41-.84.73v6.35l1.29.33v1.92h-6.02v-1.92Z"/>
      <path fill="#1C2B4A" d="M269.7,115.31v2.9h2.08v2.24h-2.08v6.03c0,.46.09.79.28.99.19.2.44.29.77.29.22,0,.41,0,.57-.03.16-.02.35-.05.55-.09l.27,2.31c-.36.11-.71.19-1.06.25s-.73.08-1.14.08c-1.1,0-1.95-.3-2.54-.91-.59-.61-.89-1.56-.89-2.88v-6.04h-1.74v-2.24h1.74v-2.9h3.18Z"/>
      <path fill="#1C2B4A" d="M273.58,128.13l1.53-.33v-7.34l-1.7-.33v-1.93h4.67l.14,1.73c.28-.61.63-1.09,1.07-1.43.44-.34.95-.51,1.52-.51.17,0,.34.01.53.04.19.03.34.06.46.09l-.34,2.91-1.31-.03c-.47,0-.85.09-1.16.27-.31.18-.54.44-.7.78v5.76l1.53.33v1.92h-6.26v-1.92Z"/>
      <path fill="#1C2B4A" d="M288.23,130.28c-1.71,0-3.07-.55-4.09-1.64-1.02-1.09-1.53-2.48-1.53-4.17v-.44c0-1.76.48-3.21,1.45-4.34.97-1.14,2.26-1.7,3.89-1.7,1.6,0,2.84.48,3.72,1.44s1.32,2.26,1.32,3.91v1.74h-7.07l-.02.07c.06.78.32,1.42.78,1.93.46.5,1.09.75,1.89.75.71,0,1.29-.07,1.76-.21.47-.14.98-.37,1.53-.67l.87,1.97c-.49.39-1.12.71-1.9.97-.78.26-1.64.39-2.6.39ZM287.95,120.45c-.59,0-1.06.23-1.4.68-.34.45-.55,1.05-.63,1.78l.03.05h3.92v-.28c0-.68-.16-1.22-.48-1.62-.32-.41-.8-.61-1.44-.61Z"/>
      <path fill="#1C2B4A" d="M300.17,128.13l1.54-.33v-7.35h-1.76v-2.24h1.76v-1.31c0-1.33.38-2.35,1.15-3.07.77-.72,1.84-1.08,3.23-1.08.27,0,.55.02.83.06.28.04.59.1.92.17l-.27,2.37c-.17-.03-.34-.05-.51-.08-.16-.02-.36-.03-.57-.03-.52,0-.91.14-1.18.43-.27.29-.4.69-.4,1.23v1.31h2.35v2.24h-2.35v7.35l1.54.33v1.92h-6.28v-1.92Z"/>
      <path fill="#1C2B4A" d="M308.33,124.02c0-1.77.49-3.21,1.48-4.34s2.35-1.69,4.1-1.69,3.12.56,4.11,1.68c.99,1.12,1.48,2.57,1.48,4.34v.23c0,1.78-.5,3.23-1.48,4.35-.99,1.12-2.35,1.68-4.09,1.68s-3.13-.56-4.12-1.68c-.99-1.12-1.48-2.57-1.48-4.35v-.23ZM311.53,124.25c0,1.08.19,1.95.57,2.6.38.65.99.98,1.84.98s1.43-.33,1.81-.98c.38-.66.57-1.52.57-2.59v-.23c0-1.05-.19-1.91-.58-2.57-.39-.66-1-1-1.83-1s-1.44.33-1.82,1c-.38.66-.57,1.52-.57,2.57v.23Z"/>
      <path fill="#1C2B4A" d="M321.14,128.13l1.53-.33v-7.34l-1.7-.33v-1.93h4.67l.14,1.73c.28-.61.63-1.09,1.07-1.43.44-.34.94-.51,1.52-.51.17,0,.34.01.53.04.19.03.34.06.46.09l-.34,2.91-1.31-.03c-.47,0-.85.09-1.16.27-.31.18-.54.44-.7.78v5.76l1.53.33v1.92h-6.26v-1.92Z"/>
      <path fill="#1C2B4A" d="M335.75,130.05v-1.92l1.7-.33v-11.44l-1.7-.33v-1.93h6.6v1.93l-1.71.33v11.23h4.5l.15-2h2.44v4.45h-11.98Z"/>
      <path fill="#1C2B4A" d="M356.49,130.05c-.09-.2-.16-.4-.23-.61s-.12-.42-.15-.63c-.38.44-.84.79-1.38,1.06-.54.27-1.17.4-1.87.4-1.16,0-2.08-.32-2.76-.95-.68-.63-1.02-1.49-1.02-2.58s.45-1.97,1.33-2.57c.89-.61,2.2-.91,3.92-.91h1.63v-1.16c0-.57-.16-1.01-.49-1.32-.33-.31-.81-.47-1.46-.47-.37,0-.69.04-.97.13-.29.08-.51.18-.69.3l-.21,1.27h-2.41v-2.63c.59-.39,1.26-.73,2.02-1,.75-.27,1.58-.4,2.47-.4,1.47,0,2.66.36,3.57,1.08.92.72,1.37,1.74,1.37,3.07v4.89c0,.18,0,.35,0,.51s.02.31.04.46l.97.13v1.92h-3.69ZM353.72,127.92c.48,0,.92-.1,1.31-.31s.7-.47.92-.78v-1.8h-1.63c-.68,0-1.19.16-1.54.48-.35.32-.53.7-.53,1.14,0,.4.13.71.39.94.26.23.62.34,1.08.34Z"/>
      <path fill="#1C2B4A" d="M378.14,120.14l-1.19.15-2.47,9.76h-2.67l-2.2-7.05h-.07l-2.2,7.05h-2.66l-2.48-9.76-1.19-.15v-1.93h5.36v1.93l-1.26.24,1.12,5.42h.07l2.21-7.58h2.14l2.23,7.61h.07l1.11-5.43-1.27-.25v-1.93h5.36v1.93Z"/>
      <path fill="#1C2B4A" d="M392.27,130.05c-.09-.2-.16-.4-.23-.61s-.12-.42-.15-.63c-.38.44-.84.79-1.38,1.06-.54.27-1.17.4-1.87.4-1.16,0-2.08-.32-2.76-.95-.68-.63-1.02-1.49-1.02-2.58s.45-1.97,1.33-2.57c.89-.61,2.2-.91,3.92-.91h1.63v-1.16c0-.57-.16-1.01-.49-1.32-.33-.31-.81-.47-1.46-.47-.37,0-.69.04-.97.13-.29.08-.51.18-.69.3l-.21,1.27h-2.41v-2.63c.59-.39,1.26-.73,2.02-1,.75-.27,1.58-.4,2.47-.4,1.47,0,2.66.36,3.57,1.08.92.72,1.37,1.74,1.37,3.07v4.89c0,.18,0,.35,0,.51s.02.31.04.46l.97.13v1.92h-3.69ZM389.5,127.92c.48,0,.92-.1,1.31-.31s.7-.47.92-.78v-1.8h-1.63c-.68,0-1.19.16-1.54.48-.35.32-.53.7-.53,1.14,0,.4.13.71.39.94.26.23.62.34,1.08.34Z"/>
      <path fill="#1C2B4A" d="M396.86,128.13l1.53-.33v-7.34l-1.7-.33v-1.93h4.67l.14,1.7c.39-.61.88-1.08,1.46-1.41.58-.33,1.22-.5,1.94-.5,1.2,0,2.13.38,2.8,1.13s1.01,1.93,1.01,3.53v5.15l1.53.33v1.92h-6.11v-1.92l1.37-.33v-5.14c0-.79-.16-1.36-.48-1.69-.32-.33-.81-.5-1.46-.5-.42,0-.8.09-1.14.26-.34.17-.62.41-.84.73v6.35l1.29.33v1.92h-6.02v-1.92Z"/>
      <path fill="#1C2B4A" d="M418.86,128.6c-.37.55-.81.96-1.32,1.25-.51.29-1.08.43-1.73.43-1.46,0-2.59-.53-3.4-1.6-.81-1.06-1.21-2.47-1.21-4.22v-.23c0-1.87.4-3.37,1.21-4.52.81-1.15,1.95-1.72,3.41-1.72.59,0,1.12.13,1.6.39.47.26.89.62,1.25,1.1v-4.25l-1.71-.33v-1.93h4.9v14.83l1.53.33v1.92h-4.3l-.24-1.44ZM414.39,124.46c0,1.04.17,1.85.52,2.45.35.59.91.89,1.7.89.47,0,.87-.09,1.21-.29.34-.19.62-.46.84-.82v-5.02c-.22-.38-.5-.67-.84-.88-.34-.21-.74-.31-1.2-.31-.78,0-1.35.35-1.71,1.04s-.54,1.6-.54,2.71v.23Z"/>
      <path fill="#1C2B4A" d="M429.83,128.13l1.7-.33v-11.44l-1.7-.33v-1.93h12.68v4.37h-2.45l-.14-1.9h-5.2v4.39h5.58v2.46h-5.58v4.38l1.71.33v1.92h-6.6v-1.92Z"/>
      <path fill="#1C2B4A" d="M443.66,116.04v-1.93h6.6v1.93l-1.71.33v11.44l1.71.33v1.92h-6.6v-1.92l1.71-.33v-11.44l-1.71-.33Z"/>
      <path fill="#1C2B4A" d="M451.38,128.13l1.53-.33v-7.34l-1.7-.33v-1.93h4.67l.14,1.7c.39-.61.88-1.08,1.46-1.41.58-.33,1.22-.5,1.94-.5,1.2,0,2.13.38,2.8,1.13s1.01,1.93,1.01,3.53v5.15l1.53.33v1.92h-6.11v-1.92l1.37-.33v-5.14c0-.79-.16-1.36-.48-1.69-.32-.33-.81-.5-1.46-.5-.42,0-.8.09-1.14.26-.34.17-.62.41-.84.73v6.35l1.29.33v1.92h-6.02v-1.92Z"/>
      <path fill="#1C2B4A" d="M473.32,130.05c-.09-.2-.16-.4-.23-.61s-.12-.42-.15-.63c-.38.44-.84.79-1.38,1.06-.54.27-1.17.4-1.87.4-1.16,0-2.08-.32-2.76-.95-.68-.63-1.02-1.49-1.02-2.58s.45-1.97,1.33-2.57c.89-.61,2.2-.91,3.92-.91h1.63v-1.16c0-.57-.16-1.01-.49-1.32-.33-.31-.81-.47-1.46-.47-.37,0-.69.04-.97.13-.29.08-.51.18-.69.3l-.21,1.27h-2.41v-2.63c.59-.39,1.26-.73,2.02-1,.75-.27,1.58-.4,2.47-.4,1.47,0,2.66.36,3.57,1.08.92.72,1.37,1.74,1.37,3.07v4.89c0,.18,0,.35,0,.51s.02.31.04.46l.97.13v1.92h-3.69ZM470.55,127.92c.48,0,.92-.1,1.31-.31s.7-.47.92-.78v-1.8h-1.63c-.68,0-1.19.16-1.54.48-.35.32-.53.7-.53,1.14,0,.4.13.71.39.94.26.23.62.34,1.08.34Z"/>
      <path fill="#1C2B4A" d="M477.91,128.13l1.53-.33v-7.34l-1.7-.33v-1.93h4.67l.14,1.7c.39-.61.88-1.08,1.46-1.41.58-.33,1.22-.5,1.94-.5,1.2,0,2.13.38,2.8,1.13s1.01,1.93,1.01,3.53v5.15l1.53.33v1.92h-6.11v-1.92l1.37-.33v-5.14c0-.79-.16-1.36-.48-1.69-.32-.33-.81-.5-1.46-.5-.42,0-.8.09-1.14.26-.34.17-.62.41-.84.73v6.35l1.29.33v1.92h-6.02v-1.92Z"/>
      <path fill="#1C2B4A" d="M497.76,127.83c.57,0,1.03-.17,1.37-.5.34-.33.51-.77.51-1.33h2.89l.03.07c.03,1.2-.42,2.2-1.35,3-.93.81-2.08,1.21-3.46,1.21-1.77,0-3.13-.56-4.08-1.67-.96-1.12-1.43-2.55-1.43-4.3v-.33c0-1.74.49-3.18,1.47-4.3.98-1.12,2.38-1.68,4.2-1.68.96,0,1.81.14,2.57.43.76.28,1.39.69,1.89,1.2l.04,3.16h-2.59l-.53-1.85c-.16-.14-.36-.25-.59-.34s-.5-.14-.8-.14c-.9,0-1.54.33-1.92.98-.37.66-.56,1.5-.56,2.54v.33c0,1.06.17,1.91.51,2.56s.95.97,1.81.97Z"/>
      <path fill="#1C2B4A" d="M509.68,130.28c-1.71,0-3.07-.55-4.09-1.64-1.02-1.09-1.53-2.48-1.53-4.17v-.44c0-1.76.48-3.21,1.45-4.34.97-1.14,2.26-1.7,3.89-1.7,1.6,0,2.84.48,3.72,1.44s1.32,2.26,1.32,3.91v1.74h-7.07l-.02.07c.06.78.32,1.42.78,1.93.46.5,1.09.75,1.89.75.71,0,1.29-.07,1.76-.21.47-.14.98-.37,1.53-.67l.87,1.97c-.49.39-1.12.71-1.9.97-.78.26-1.64.39-2.6.39ZM509.4,120.45c-.59,0-1.06.23-1.4.68-.34.45-.55,1.05-.63,1.78l.03.05h3.92v-.28c0-.68-.16-1.22-.48-1.62-.32-.41-.8-.61-1.44-.61Z"/>
    </g>
    <g>
      <path fill="#1C2B4A" d="M166.05,93.49h-2.37l-.33-2.12c-.31-.31-.71-.56-1.19-.74-.48-.18-1.04-.27-1.69-.27-1.39,0-2.45.5-3.2,1.51-.75,1.01-1.12,2.32-1.12,3.94v.56c0,1.62.37,2.94,1.12,3.95s1.79,1.52,3.15,1.52c.63,0,1.2-.09,1.72-.27.52-.18.92-.43,1.21-.74l.33-2.12h2.37v3.15c-.64.74-1.46,1.34-2.46,1.78-1,.44-2.11.66-3.34.66-2.14,0-3.89-.74-5.25-2.22-1.36-1.48-2.05-3.38-2.05-5.7v-.54c0-2.31.68-4.21,2.04-5.7s3.11-2.23,5.26-2.23c1.23,0,2.35.22,3.34.67.99.45,1.81,1.04,2.46,1.78v3.15Z"/>
      <path fill="#1C2B4A" d="M173.26,104.28c-1.71,0-3.07-.55-4.09-1.64-1.02-1.09-1.53-2.48-1.53-4.17v-.44c0-1.76.48-3.21,1.45-4.34.97-1.14,2.26-1.7,3.89-1.7,1.6,0,2.84.48,3.72,1.44.88.96,1.32,2.26,1.32,3.91v1.74h-7.07l-.02.07c.06.78.32,1.42.78,1.93.46.5,1.09.75,1.89.75.71,0,1.29-.07,1.76-.21.47-.14.98-.37,1.53-.67l.86,1.97c-.49.39-1.12.71-1.9.97s-1.64.39-2.6.39ZM172.97,94.45c-.59,0-1.06.23-1.4.68s-.55,1.05-.63,1.78l.03.05h3.92v-.28c0-.68-.16-1.22-.48-1.62-.32-.41-.8-.61-1.44-.61Z"/>
      <path fill="#1C2B4A" d="M179.35,102.13l1.53-.33v-7.34l-1.7-.33v-1.93h4.67l.14,1.7c.39-.61.88-1.08,1.46-1.41.58-.33,1.22-.5,1.94-.5,1.2,0,2.13.38,2.8,1.13.67.75,1.01,1.93,1.01,3.53v5.15l1.53.33v1.92h-6.11v-1.92l1.37-.33v-5.14c0-.79-.16-1.36-.48-1.69-.32-.33-.81-.5-1.46-.5-.42,0-.8.09-1.14.26-.34.17-.62.41-.84.73v6.35l1.29.33v1.92h-6.02v-1.92Z"/>
      <path fill="#1C2B4A" d="M198.47,89.31v2.9h2.08v2.24h-2.08v6.03c0,.46.09.79.28.99.19.2.44.29.77.29.22,0,.41,0,.57-.03.16-.02.35-.05.55-.09l.27,2.31c-.36.11-.71.19-1.06.25s-.73.08-1.14.08c-1.1,0-1.95-.3-2.54-.91-.59-.61-.89-1.56-.89-2.88v-6.04h-1.74v-2.24h1.74v-2.9h3.18Z"/>
      <path fill="#1C2B4A" d="M202.35,102.13l1.53-.33v-7.34l-1.7-.33v-1.93h4.67l.14,1.73c.28-.61.63-1.09,1.07-1.43.44-.34.94-.51,1.52-.51.17,0,.34.01.53.04s.34.06.46.09l-.34,2.91-1.31-.03c-.47,0-.85.09-1.16.27-.31.18-.54.44-.7.78v5.76l1.53.33v1.92h-6.26v-1.92Z"/>
      <path fill="#1C2B4A" d="M211.33,98.02c0-1.77.49-3.21,1.48-4.34.99-1.13,2.35-1.69,4.1-1.69s3.12.56,4.11,1.68c.99,1.12,1.48,2.57,1.48,4.34v.23c0,1.78-.49,3.23-1.48,4.35-.99,1.12-2.35,1.68-4.09,1.68s-3.13-.56-4.12-1.68c-.99-1.12-1.48-2.57-1.48-4.35v-.23ZM214.52,98.25c0,1.08.19,1.95.57,2.6.38.65.99.98,1.84.98s1.43-.33,1.81-.98.57-1.52.57-2.59v-.23c0-1.05-.19-1.91-.58-2.57-.39-.66-1-1-1.83-1s-1.44.33-1.82,1c-.38.66-.57,1.52-.57,2.57v.23Z"/>
      <path fill="#1C2B4A" d="M237.09,102.6c-.37.55-.81.96-1.32,1.25-.51.29-1.08.43-1.73.43-1.46,0-2.59-.53-3.4-1.6-.81-1.06-1.21-2.47-1.21-4.22v-.23c0-1.87.4-3.37,1.21-4.52s1.95-1.72,3.41-1.72c.59,0,1.12.13,1.6.39.47.26.89.62,1.25,1.1v-4.25l-1.71-.33v-1.93h4.9v14.83l1.53.33v1.92h-4.3l-.24-1.44ZM232.62,98.46c0,1.04.17,1.85.52,2.45.35.59.91.89,1.7.89.47,0,.87-.09,1.21-.29.34-.19.62-.46.84-.82v-5.02c-.22-.38-.5-.67-.84-.88-.34-.21-.74-.31-1.2-.31-.78,0-1.35.35-1.71,1.04-.36.69-.54,1.6-.54,2.71v.23Z"/>
      <path fill="#1C2B4A" d="M242.55,102.13l1.54-.33v-7.34l-1.71-.33v-1.93h4.9v9.6l1.53.33v1.92h-6.27v-1.92ZM247.29,89.38h-3.2v-2.4h3.2v2.4Z"/>
      <path fill="#1C2B4A" d="M262.45,88.12c1.95,0,3.55.62,4.81,1.87,1.26,1.24,1.89,2.84,1.89,4.79v2.64c0,1.96-.63,3.55-1.89,4.79-1.26,1.24-2.87,1.85-4.81,1.85h-7.17v-1.92l1.7-.33v-11.44l-1.7-.33v-1.93h7.17ZM260.18,90.58v11.02h2.11c1.15,0,2.04-.39,2.69-1.16.65-.77.97-1.78.97-3.03v-2.66c0-1.23-.32-2.24-.97-3.01-.65-.77-1.55-1.16-2.69-1.16h-2.11Z"/>
      <path fill="#1C2B4A" d="M270.7,102.13l1.54-.33v-7.34l-1.71-.33v-1.93h4.9v9.6l1.53.33v1.92h-6.27v-1.92ZM275.44,89.38h-3.2v-2.4h3.2v2.4Z"/>
      <path fill="#1C2B4A" d="M278.26,102.13l1.53-.33v-7.34l-1.7-.33v-1.93h4.67l.14,1.73c.28-.61.63-1.09,1.07-1.43.44-.34.94-.51,1.52-.51.17,0,.34.01.53.04.19.03.34.06.46.09l-.34,2.91-1.31-.03c-.47,0-.85.09-1.16.27-.31.18-.54.44-.7.78v5.76l1.53.33v1.92h-6.26v-1.92Z"/>
      <path fill="#1C2B4A" d="M287.36,102.13l1.54-.33v-7.34l-1.71-.33v-1.93h4.9v9.6l1.53.33v1.92h-6.27v-1.92ZM292.1,89.38h-3.2v-2.4h3.2v2.4Z"/>
      <path fill="#1C2B4A" d="M299.39,89.31v2.9h2.08v2.24h-2.08v6.03c0,.46.09.79.29.99.19.2.44.29.77.29.22,0,.41,0,.57-.03.17-.02.35-.05.55-.09l.27,2.31c-.36.11-.71.19-1.06.25-.35.05-.73.08-1.14.08-1.1,0-1.95-.3-2.54-.91s-.89-1.56-.89-2.88v-6.04h-1.74v-2.24h1.74v-2.9h3.18Z"/>
      <path fill="#1C2B4A" d="M307.75,89.31v2.9h2.08v2.24h-2.08v6.03c0,.46.09.79.29.99.19.2.44.29.77.29.22,0,.41,0,.57-.03.17-.02.35-.05.55-.09l.27,2.31c-.36.11-.71.19-1.06.25-.35.05-.73.08-1.14.08-1.1,0-1.95-.3-2.54-.91s-.89-1.56-.89-2.88v-6.04h-1.74v-2.24h1.74v-2.9h3.18Z"/>
      <path fill="#1C2B4A" d="M311.07,98.02c0-1.77.49-3.21,1.48-4.34s2.35-1.69,4.1-1.69,3.12.56,4.11,1.68c.99,1.12,1.48,2.57,1.48,4.34v.23c0,1.78-.5,3.23-1.48,4.35-.99,1.12-2.35,1.68-4.09,1.68s-3.13-.56-4.12-1.68c-.99-1.12-1.48-2.57-1.48-4.35v-.23ZM314.27,98.25c0,1.08.19,1.95.57,2.6.38.65.99.98,1.84.98s1.43-.33,1.81-.98c.38-.66.57-1.52.57-2.59v-.23c0-1.05-.19-1.91-.58-2.57-.39-.66-1-1-1.83-1s-1.44.33-1.82,1c-.38.66-.57,1.52-.57,2.57v.23Z"/>
      <path fill="#1C2B4A" d="M334.79,104.28c-1.71,0-3.07-.55-4.09-1.64-1.02-1.09-1.53-2.48-1.53-4.17v-.44c0-1.76.48-3.21,1.45-4.34.97-1.14,2.26-1.7,3.89-1.7,1.6,0,2.84.48,3.72,1.44s1.32,2.26,1.32,3.91v1.74h-7.07l-.02.07c.06.78.32,1.42.78,1.93.46.5,1.09.75,1.89.75.71,0,1.29-.07,1.76-.21.47-.14.98-.37,1.53-.67l.87,1.97c-.49.39-1.12.71-1.9.97-.78.26-1.64.39-2.6.39ZM334.51,94.45c-.59,0-1.06.23-1.4.68-.34.45-.55,1.05-.63,1.78l.03.05h3.92v-.28c0-.68-.16-1.22-.48-1.62-.32-.41-.8-.61-1.44-.61Z"/>
      <path fill="#1C2B4A" d="M346.48,102.13l1.7-.33v-11.44l-1.7-.33v-1.93h12.68v4.37h-2.45l-.14-1.9h-5.2v4.39h5.58v2.46h-5.58v4.38l1.71.33v1.92h-6.6v-1.92Z"/>
      <path fill="#1C2B4A" d="M360.3,102.13l1.54-.33v-7.34l-1.71-.33v-1.93h4.9v9.6l1.53.33v1.92h-6.27v-1.92ZM365.04,89.38h-3.2v-2.4h3.2v2.4Z"/>
      <path fill="#1C2B4A" d="M367.45,102.13l1.53-.33v-7.34l-1.7-.33v-1.93h4.67l.14,1.7c.39-.61.88-1.08,1.46-1.41.58-.33,1.22-.5,1.94-.5,1.2,0,2.13.38,2.8,1.13s1.01,1.93,1.01,3.53v5.15l1.53.33v1.92h-6.11v-1.92l1.37-.33v-5.14c0-.79-.16-1.36-.48-1.69-.32-.33-.81-.5-1.46-.5-.42,0-.8.09-1.14.26-.34.17-.62.41-.84.73v6.35l1.29.33v1.92h-6.02v-1.92Z"/>
      <path fill="#1C2B4A" d="M389.39,104.05c-.09-.2-.16-.4-.23-.61s-.12-.42-.15-.63c-.38.44-.84.79-1.38,1.06-.54.27-1.17.4-1.87.4-1.16,0-2.08-.32-2.76-.95-.68-.63-1.02-1.49-1.02-2.58s.45-1.97,1.33-2.57c.89-.61,2.2-.91,3.92-.91h1.63v-1.16c0-.57-.16-1.01-.49-1.32-.33-.31-.81-.47-1.46-.47-.37,0-.69.04-.97.13-.29.08-.51.18-.69.3l-.21,1.27h-2.41v-2.63c.59-.39,1.26-.73,2.02-1,.75-.27,1.58-.4,2.47-.4,1.47,0,2.66.36,3.57,1.08.92.72,1.37,1.74,1.37,3.07v4.89c0,.18,0,.35,0,.51s.02.31.04.46l.97.13v1.92h-3.69ZM386.62,101.92c.48,0,.92-.1,1.31-.31s.7-.47.92-.78v-1.8h-1.63c-.68,0-1.19.16-1.54.48-.35.32-.53.7-.53,1.14,0,.4.13.71.39.94.26.23.62.34,1.08.34Z"/>
      <path fill="#1C2B4A" d="M393.98,102.13l1.53-.33v-7.34l-1.7-.33v-1.93h4.67l.14,1.7c.39-.61.88-1.08,1.46-1.41.58-.33,1.22-.5,1.94-.5,1.2,0,2.13.38,2.8,1.13s1.01,1.93,1.01,3.53v5.15l1.53.33v1.92h-6.11v-1.92l1.37-.33v-5.14c0-.79-.16-1.36-.48-1.69-.32-.33-.81-.5-1.46-.5-.42,0-.8.09-1.14.26-.34.17-.62.41-.84.73v6.35l1.29.33v1.92h-6.02v-1.92Z"/>
      <path fill="#1C2B4A" d="M412.62,101.6h3.3l.13-1.58h2.44v4.03h-9.84v-1.88l5.64-7.49h-2.9l-.12,1.57h-2.45v-4.04h9.48v1.83l-5.68,7.56Z"/>
      <path fill="#1C2B4A" d="M427.63,104.05c-.09-.2-.16-.4-.23-.61s-.12-.42-.15-.63c-.38.44-.84.79-1.38,1.06-.54.27-1.17.4-1.87.4-1.16,0-2.08-.32-2.76-.95-.68-.63-1.02-1.49-1.02-2.58s.45-1.97,1.33-2.57c.89-.61,2.2-.91,3.92-.91h1.63v-1.16c0-.57-.16-1.01-.49-1.32-.33-.31-.81-.47-1.46-.47-.37,0-.69.04-.97.13-.29.08-.51.18-.69.3l-.21,1.27h-2.41v-2.63c.59-.39,1.26-.73,2.02-1,.75-.27,1.58-.4,2.47-.4,1.47,0,2.66.36,3.57,1.08.92.72,1.37,1.74,1.37,3.07v4.89c0,.18,0,.35,0,.51s.02.31.04.46l.97.13v1.92h-3.69ZM424.86,101.92c.48,0,.92-.1,1.31-.31s.7-.47.92-.78v-1.8h-1.63c-.68,0-1.19.16-1.54.48-.35.32-.53.7-.53,1.14,0,.4.13.71.39.94.26.23.62.34,1.08.34Z"/>
    </g>
    <g>
      <g>
        <path fill="#1C2B4A" d="M176.85,50.84h-4.25l-.59-3.8c-.56-.56-1.27-1-2.13-1.33-.86-.33-1.86-.49-3.03-.49-2.48,0-4.39.9-5.73,2.7-1.34,1.8-2.01,4.15-2.01,7.05v1c0,2.9.67,5.26,2,7.07,1.33,1.82,3.21,2.72,5.64,2.72,1.12,0,2.15-.16,3.09-.49.93-.33,1.66-.77,2.17-1.33l.59-3.8h4.25v5.64c-1.15,1.33-2.62,2.39-4.4,3.18-1.78.79-3.78,1.19-5.99,1.19-3.83,0-6.96-1.33-9.41-3.98-2.44-2.65-3.66-6.05-3.66-10.21v-.96c0-4.14,1.21-7.54,3.64-10.21s5.57-4,9.42-4c2.21,0,4.2.4,5.98,1.21,1.78.8,3.25,1.86,4.41,3.18v5.64Z"/>
        <path fill="#1C2B4A" d="M197.9,57.21h-9.66v8.15h9.21l.25-3.41h4.35v7.8h-22.57v-3.43l3.04-.59v-20.48l-3.04-.59v-3.45h22.53v7.82h-4.39l-.25-3.41h-9.13v7.17h9.66v4.41Z"/>
        <path fill="#1C2B4A" d="M217.94,41.22c3.49,0,6.36,1.11,8.62,3.34,2.26,2.23,3.39,5.08,3.39,8.57v4.72c0,3.5-1.13,6.36-3.39,8.57-2.26,2.21-5.13,3.32-8.62,3.32h-12.83v-3.43l3.04-.59v-20.48l-3.04-.59v-3.45h12.83ZM213.87,45.63v19.73h3.78c2.05,0,3.66-.69,4.82-2.08,1.16-1.38,1.74-3.19,1.74-5.43v-4.76c0-2.21-.58-4-1.74-5.39s-2.77-2.08-4.82-2.08h-3.78Z"/>
        <path fill="#1C2B4A" d="M232.74,44.67v-3.45h11.82v3.45l-3.06.59v20.48l3.06.59v3.43h-11.82v-3.43l3.06-.59v-20.48l-3.06-.59Z"/>
        <path fill="#1C2B4A" d="M246.73,66.32l3.04-.59v-20.48l-3.04-.59v-3.45h22.71v7.82h-4.39l-.25-3.41h-9.31v7.86h9.99v4.41h-9.99v7.84l3.06.59v3.43h-11.82v-3.43Z"/>
        <path fill="#1C2B4A" d="M336.87,66.57c-.93.92-2.28,1.74-4.06,2.48-1.78.74-4.02,1.11-6.74,1.11-3.85,0-6.99-1.29-9.41-3.87-2.42-2.58-3.62-5.93-3.62-10.06v-.98c0-4.27,1.19-7.75,3.58-10.42s5.5-4.02,9.34-4.02c2.23,0,4.27.36,6.12,1.07,1.85.71,3.39,1.68,4.61,2.89v5.74h-4.23l-.8-3.82c-.52-.44-1.21-.8-2.07-1.07s-1.84-.4-2.95-.4c-2.5,0-4.43.92-5.82,2.76-1.38,1.84-2.08,4.25-2.08,7.23v1.02c0,2.9.68,5.22,2.04,6.95,1.36,1.73,3.32,2.6,5.88,2.6,1.15,0,2.08-.1,2.79-.29.71-.2,1.27-.42,1.68-.69v-4.84l-4.08-.31v-4.02h9.82v10.95Z"/>
        <path fill="#1C2B4A" d="M350.01,70.16c-3.06,0-5.5-.98-7.33-2.94-1.83-1.96-2.74-4.45-2.74-7.47v-.78c0-3.15.87-5.74,2.6-7.78,1.73-2.04,4.05-3.05,6.97-3.04,2.86,0,5.08.86,6.66,2.59,1.58,1.72,2.37,4.06,2.37,7v3.12h-12.66l-.04.12c.1,1.4.57,2.55,1.4,3.45.83.9,1.96,1.35,3.38,1.35,1.27,0,2.32-.13,3.15-.38s1.75-.66,2.74-1.21l1.55,3.53c-.88.69-2.01,1.27-3.4,1.74-1.39.47-2.94.71-4.65.71ZM349.5,52.56c-1.06,0-1.89.41-2.51,1.21-.61.81-.99,1.87-1.14,3.19l.06.1h7.01v-.51c0-1.21-.28-2.18-.85-2.91-.57-.72-1.43-1.09-2.58-1.09Z"/>
        <path fill="#1C2B4A" d="M360.93,66.32l2.74-.59v-13.15l-3.04-.59v-3.45h8.37l.25,3.04c.71-1.08,1.57-1.93,2.61-2.53,1.03-.6,2.19-.9,3.47-.9,2.14,0,3.81.67,5.02,2.02,1.2,1.35,1.8,3.46,1.8,6.33v9.23l2.74.59v3.43h-10.93v-3.43l2.45-.59v-9.21c0-1.42-.29-2.43-.86-3.03-.58-.59-1.44-.89-2.61-.89-.76,0-1.44.15-2.04.46-.6.31-1.1.74-1.51,1.3v11.36l2.31.59v3.43h-10.78v-3.43Z"/>
        <path fill="#1C2B4A" d="M386.52,58.95c0-3.16.88-5.75,2.66-7.77,1.77-2.02,4.22-3.03,7.34-3.03s5.59,1.01,7.36,3.02c1.77,2.01,2.65,4.6,2.65,7.78v.41c0,3.19-.88,5.78-2.65,7.79-1.77,2-4.21,3.01-7.32,3.01s-5.61-1-7.38-3.01c-1.77-2.01-2.66-4.6-2.66-7.79v-.41ZM392.24,59.36c0,1.93.34,3.49,1.02,4.65.68,1.17,1.78,1.75,3.29,1.75s2.56-.59,3.24-1.76,1.03-2.72,1.03-4.64v-.41c0-1.88-.35-3.42-1.04-4.6s-1.78-1.78-3.27-1.78-2.57.59-3.25,1.78c-.68,1.19-1.02,2.72-1.02,4.6v.41Z"/>
        <path fill="#1C2B4A" d="M422.51,69.75c-.16-.35-.29-.71-.41-1.09-.12-.37-.21-.75-.27-1.13-.68.78-1.51,1.42-2.48,1.9-.97.48-2.09.72-3.34.72-2.08,0-3.73-.56-4.95-1.69-1.22-1.13-1.83-2.67-1.83-4.62s.8-3.52,2.39-4.6,3.93-1.63,7.01-1.63h2.92v-2.08c0-1.02-.29-1.81-.88-2.37s-1.46-.84-2.61-.84c-.65,0-1.23.08-1.74.23-.51.15-.92.33-1.23.54l-.37,2.27h-4.31l.02-4.7c1.04-.71,2.24-1.3,3.6-1.78,1.35-.48,2.82-.73,4.42-.73,2.63,0,4.76.64,6.4,1.93,1.64,1.29,2.46,3.12,2.46,5.5v8.76c0,.33,0,.63,0,.92,0,.29.03.56.07.82l1.74.23v3.43h-6.6ZM417.56,65.93c.86,0,1.65-.19,2.35-.56.71-.37,1.25-.84,1.65-1.4v-3.23h-2.92c-1.21,0-2.14.28-2.76.85s-.94,1.25-.94,2.05c0,.72.23,1.28.7,1.69.46.41,1.11.61,1.93.61Z"/>
        <path fill="#1C2B4A" d="M464.13,50.84h-4.25l-.59-3.8c-.56-.56-1.27-1-2.13-1.33-.86-.33-1.87-.49-3.03-.49-2.48,0-4.39.9-5.73,2.7s-2.01,4.15-2.01,7.05v1c0,2.9.67,5.26,2,7.07,1.33,1.82,3.21,2.72,5.64,2.72,1.12,0,2.15-.16,3.09-.49.93-.33,1.66-.77,2.17-1.33l.59-3.8h4.25v5.64c-1.15,1.33-2.62,2.39-4.4,3.18-1.78.79-3.78,1.19-5.99,1.19-3.83,0-6.96-1.33-9.41-3.98-2.44-2.65-3.67-6.05-3.67-10.21v-.96c0-4.14,1.21-7.54,3.64-10.21,2.43-2.67,5.57-4,9.43-4,2.21,0,4.2.4,5.98,1.21,1.78.8,3.25,1.86,4.41,3.18v5.64Z"/>
        <path fill="#1C2B4A" d="M466.76,69.75v-3.43l3.04-.59v-20.48l-3.04-.59v-3.45h11.82v3.45l-3.06.59v20.1h8.05l.27-3.59h4.37v7.98h-21.46Z"/>
        <path fill="#1C2B4A" d="M490.27,66.32l3.04-.59v-20.48l-3.04-.59v-3.45h22.71v7.82h-4.39l-.25-3.41h-9.31v7.86h9.99v4.41h-9.99v7.84l3.06.59v3.43h-11.82v-3.43Z"/>
      </g>
      <rect fill="#1C2B4A" x="291.6" y="33.75" width="2" height="41.11"/>
    </g>
  </g>
</svg>