<?xml version="1.0" encoding="UTF-8"?>
<svg id="Livello_2" data-name="Livello 2" xmlns="http://www.w3.org/2000/svg" viewBox="0 0 1281.75 231.56">
  <g id="Livello_1-2" data-name="Livello 1">
    <g>
      <path fill="#fff" d="M73.38,231.56l-.09-40.11c45.28,3.81,87.91-19.55,109.24-59.29,9.79-18.48,14.02-38.64,12.66-59.85h38.26s0,159.25,0,159.25H73.38Z"/>
      <path fill="#fff" d="M54.75,54.68l-.02,114.46c-7.17-1.92-13.04-5.41-18.81-9.77C2.52,134.6-9.14,90.41,7.55,52.56,24,15.26,64.19-6.22,105.22,1.6c28.93,5.63,53.3,25.04,64.96,53.06l-115.43.03Z"/>
      <path fill="#fff" d="M156.53,138.26c-20.33,25.06-51.16,37.78-83.21,34.76v-100.72s103.44,0,103.44,0c1.88,23.98-4.95,46.97-20.24,65.96Z"/>
    </g>
    <g>
      <g>
        <path fill="#fff" d="M330.75,131.66h-12.03l-1.66-10.76c-1.59-1.59-3.59-2.84-6.01-3.77-2.42-.92-5.28-1.39-8.57-1.39-7.02,0-12.43,2.55-16.22,7.65-3.79,5.1-5.68,11.75-5.68,19.96v2.83c0,8.21,1.88,14.88,5.65,20.01,3.77,5.14,9.09,7.71,15.97,7.71,3.18,0,6.09-.46,8.73-1.39,2.64-.92,4.68-2.18,6.13-3.77l1.66-10.76h12.03v15.97c-3.25,3.77-7.4,6.77-12.45,9.01-5.05,2.24-10.69,3.35-16.94,3.35-10.83,0-19.7-3.75-26.61-11.25-6.91-7.5-10.37-17.13-10.37-28.88v-2.72c0-11.71,3.44-21.34,10.31-28.88,6.87-7.54,15.76-11.31,26.67-11.31,6.25,0,11.88,1.14,16.91,3.41,5.03,2.27,9.18,5.27,12.47,9.01v15.97Z"/>
        <path fill="#fff" d="M390.29,149.67h-27.33v23.06h26.06l.72-9.65h12.31v22.07h-63.87v-9.7l8.59-1.66v-57.93l-8.59-1.66v-9.76h63.76v22.12h-12.42l-.72-9.65h-25.84v20.29h27.33v12.47Z"/>
        <path fill="#fff" d="M447,104.44c9.87,0,18,3.15,24.39,9.45,6.39,6.3,9.59,14.39,9.59,24.26v13.36c0,9.91-3.2,17.99-9.59,24.26-6.39,6.26-14.52,9.4-24.39,9.4h-36.31v-9.7l8.59-1.66v-57.93l-8.59-1.66v-9.76h36.31ZM435.47,116.91v55.83h10.7c5.8,0,10.35-1.96,13.64-5.88,3.29-3.92,4.93-9.03,4.93-15.36v-13.47c0-6.25-1.65-11.33-4.93-15.25s-7.84-5.88-13.64-5.88h-10.7Z"/>
        <path fill="#fff" d="M488.86,114.2v-9.76h33.43v9.76l-8.65,1.66v57.93l8.65,1.66v9.7h-33.43v-9.7l8.65-1.66v-57.93l-8.65-1.66Z"/>
        <path fill="#fff" d="M528.44,175.45l8.59-1.66v-57.93l-8.59-1.66v-9.76h64.25v22.12h-12.42l-.72-9.65h-26.33v22.23h28.27v12.47h-28.27v22.18l8.65,1.66v9.7h-33.43v-9.7Z"/>
        <path fill="#fff" d="M783.47,176.17c-2.62,2.59-6.45,4.93-11.47,7.02-5.03,2.09-11.39,3.13-19.07,3.13-10.9,0-19.77-3.65-26.61-10.95-6.84-7.3-10.26-16.79-10.26-28.47v-2.77c0-12.09,3.37-21.92,10.12-29.49,6.74-7.58,15.55-11.36,26.42-11.36,6.32,0,12.09,1.01,17.32,3.02,5.23,2.02,9.58,4.74,13.06,8.18v16.24h-11.97l-2.27-10.81c-1.48-1.25-3.43-2.26-5.85-3.02s-5.2-1.14-8.34-1.14c-7.06,0-12.55,2.61-16.46,7.82-3.92,5.21-5.88,12.03-5.88,20.46v2.88c0,8.21,1.92,14.76,5.77,19.65,3.84,4.9,9.39,7.35,16.63,7.35,3.25,0,5.89-.28,7.9-.83,2.01-.56,3.59-1.2,4.74-1.94v-13.69l-11.53-.89v-11.36h27.77v30.99Z"/>
        <path fill="#fff" d="M820.67,186.32c-8.65,0-15.56-2.77-20.74-8.31-5.17-5.55-7.76-12.59-7.76-21.12v-2.22c0-8.91,2.45-16.24,7.35-22.01,4.9-5.77,11.47-8.63,19.71-8.59,8.1,0,14.38,2.44,18.85,7.32,4.47,4.88,6.71,11.47,6.71,19.79v8.81h-35.81l-.11.33c.3,3.95,1.62,7.21,3.96,9.76,2.35,2.55,5.53,3.83,9.56,3.83,3.58,0,6.56-.36,8.92-1.08s4.95-1.86,7.76-3.41l4.38,9.98c-2.48,1.96-5.68,3.6-9.62,4.93-3.93,1.33-8.32,1.99-13.17,1.99ZM819.22,136.54c-2.99,0-5.36,1.15-7.1,3.44-1.74,2.29-2.81,5.3-3.22,9.03l.17.28h19.85v-1.44c0-3.44-.8-6.18-2.41-8.23-1.61-2.05-4.04-3.08-7.29-3.08Z"/>
        <path fill="#fff" d="M851.55,175.45l7.76-1.66v-37.2l-8.59-1.66v-9.76h23.67l.72,8.6c1.99-3.07,4.45-5.45,7.37-7.15,2.92-1.7,6.19-2.55,9.81-2.55,6.06,0,10.79,1.9,14.19,5.71,3.4,3.81,5.1,9.78,5.1,17.91v26.11l7.76,1.66v9.7h-30.94v-9.7l6.93-1.66v-26.05c0-4.03-.81-6.88-2.44-8.57-1.63-1.68-4.09-2.52-7.37-2.52-2.14,0-4.07.43-5.77,1.3-1.7.87-3.12,2.1-4.27,3.69v32.15l6.54,1.66v9.7h-30.49v-9.7Z"/>
        <path fill="#fff" d="M923.95,154.61c0-8.94,2.5-16.27,7.51-21.98,5.01-5.71,11.93-8.57,20.76-8.57s15.81,2.85,20.82,8.54c5.01,5.69,7.51,13.03,7.51,22.01v1.16c0,9.02-2.5,16.37-7.51,22.04-5.01,5.67-11.91,8.51-20.71,8.51s-15.86-2.83-20.87-8.51c-5.01-5.68-7.51-13.02-7.51-22.04v-1.16ZM940.13,155.77c0,5.47.96,9.86,2.88,13.17,1.92,3.31,5.03,4.96,9.31,4.96s7.24-1.66,9.18-4.99c1.94-3.33,2.91-7.71,2.91-13.14v-1.16c0-5.32-.98-9.66-2.94-13.03s-5.05-5.05-9.26-5.05-7.28,1.68-9.2,5.05c-1.92,3.36-2.88,7.71-2.88,13.03v1.16Z"/>
        <path fill="#fff" d="M1025.79,185.16c-.44-1-.83-2.02-1.16-3.08-.33-1.05-.59-2.11-.78-3.19-1.92,2.22-4.26,4.01-7.02,5.38-2.75,1.37-5.9,2.05-9.45,2.05-5.88,0-10.54-1.6-14-4.79-3.46-3.2-5.18-7.55-5.18-13.06s2.25-9.96,6.76-13.03,11.12-4.6,19.85-4.6h8.26v-5.88c0-2.88-.83-5.12-2.49-6.71s-4.12-2.38-7.37-2.38c-1.85,0-3.49.21-4.93.64-1.44.43-2.61.93-3.49,1.53l-1.05,6.43h-12.2l.06-13.31c2.96-1.99,6.35-3.67,10.17-5.04,3.82-1.37,7.99-2.05,12.5-2.05,7.43,0,13.46,1.82,18.1,5.46,4.64,3.64,6.96,8.82,6.96,15.55v24.78c0,.92,0,1.79.03,2.61.02.81.08,1.59.19,2.33l4.93.66v9.7h-18.68ZM1011.76,174.34c2.44,0,4.66-.53,6.65-1.58,2-1.05,3.55-2.37,4.66-3.96v-9.15h-8.26c-3.44,0-6.04.8-7.82,2.41s-2.66,3.54-2.66,5.79c0,2.03.65,3.63,1.97,4.77,1.31,1.15,3.13,1.72,5.46,1.72Z"/>
        <path fill="#fff" d="M1143.54,131.66h-12.03l-1.66-10.76c-1.59-1.59-3.59-2.84-6.01-3.77-2.42-.92-5.28-1.39-8.57-1.39-7.02,0-12.43,2.55-16.22,7.65-3.79,5.1-5.68,11.75-5.68,19.96v2.83c0,8.21,1.89,14.88,5.66,20.01,3.77,5.14,9.09,7.71,15.97,7.71,3.18,0,6.09-.46,8.73-1.39,2.64-.92,4.68-2.18,6.13-3.77l1.66-10.76h12.03v15.97c-3.25,3.77-7.4,6.77-12.44,9.01-5.05,2.24-10.69,3.35-16.94,3.35-10.83,0-19.7-3.75-26.61-11.25-6.91-7.5-10.37-17.13-10.37-28.88v-2.72c0-11.71,3.44-21.34,10.31-28.88,6.88-7.54,15.77-11.31,26.67-11.31,6.24,0,11.88,1.14,16.91,3.41,5.03,2.27,9.18,5.27,12.47,9.01v15.97Z"/>
        <path fill="#fff" d="M1150.97,185.16v-9.7l8.59-1.66v-57.93l-8.59-1.66v-9.76h33.43v9.76l-8.65,1.66v56.88h22.78l.78-10.15h12.36v22.57h-60.71Z"/>
        <path fill="#fff" d="M1217.5,175.45l8.59-1.66v-57.93l-8.59-1.66v-9.76h64.25v22.12h-12.42l-.72-9.65h-26.33v22.23h28.27v12.47h-28.27v22.18l8.65,1.66v9.7h-33.43v-9.7Z"/>
      </g>
      <rect fill="#fff" x="655.41" y="83.31" width="5.66" height="116.32"/>
    </g>
  </g>
</svg>
